<?xml version="1.0" encoding="UTF-8"?>
<svg id="Layer_1" data-name="Layer 1" xmlns="http://www.w3.org/2000/svg" xmlns:xlink="http://www.w3.org/1999/xlink" viewBox="0 0 393 658">
  <defs>
    <style>
      .cls-1 {
        fill: #333;
      }

      .cls-2 {
        fill: url(#linear-gradient);
      }
    </style>
    <linearGradient id="linear-gradient" x1="195.97" y1="597.72" x2="196.61" y2="246.58" gradientUnits="userSpaceOnUse">
      <stop offset="0" stop-color="#5600d4"/>
      <stop offset=".36" stop-color="#9001af"/>
      <stop offset=".89" stop-color="#ed0376"/>
      <stop offset="1" stop-color="#ff036a"/>
    </linearGradient>
  </defs>
  <path class="cls-2" d="m390.75,580.49c0,42.81-36.05,77.51-80.51,77.51s-80.51-34.7-80.51-77.51c0-5.87.7-11.59,1.99-17.09l-120.69-96.54c-9.41,3.71-19.7,5.77-30.5,5.77-44.47,0-80.51-34.7-80.51-77.51s36.05-77.51,80.51-77.51c13.52,0,26.25,3.22,37.44,8.89l115.41-91.61c-.9-4.64-1.39-9.41-1.39-14.3,0-42.81,36.05-77.51,80.51-77.51s80.51,34.7,80.51,77.51-36.05,77.51-80.51,77.51c-12.3,0-23.94-2.66-34.37-7.41l-117.89,93.58c.52,3.55.8,7.17.8,10.85,0,6.31-.8,12.44-2.28,18.31l119.77,95.81c9.73-4.02,20.45-6.25,31.71-6.25,44.47,0,80.51,34.7,80.51,77.51Z"/>
  <path class="cls-1" d="m69.27,0L20.27,47.17v272.56c26.39-19.86,68.45-23.14,98.06-7.22l15.67-12.44V0h-64.74Z"/>
  <path class="cls-1" d="m134,606.14v-104.76l-26.36-19.53c-9.48,3.33-19.76,5.16-30.51,5.16-21.8,0-41.69-7.51-56.87-19.86v187.6h63.24l50.49-48.61Z"/>
</svg>